<svg width="18" height="18" viewBox="0 0 18 18" fill="none" xmlns="http://www.w3.org/2000/svg">
<g clip-path="url(#clip0)">
<path d="M17.0066 18.0001C17.5551 18.0001 18 17.5553 18 17.0066V0.993445C18 0.444727 17.5551 0 17.0066 0H0.993445C0.444656 0 0 0.444727 0 0.993445V17.0066C0 17.5553 0.444656 18.0001 0.993445 18.0001H17.0066Z" fill="#395185"/>
<path d="M12.4196 18V11.0295H14.7594L15.1097 8.31296H12.4196V6.57849C12.4196 5.79197 12.638 5.25598 13.7659 5.25598L15.2044 5.25535V2.8257C14.9555 2.79258 14.1017 2.71861 13.1083 2.71861C11.0342 2.71861 9.61432 3.98459 9.61432 6.30954V8.31296H7.26855V11.0295H9.61432V18H12.4196Z" fill="white"/>
</g>
<defs>
<clipPath id="clip0">
<rect width="18" height="18" fill="white"/>
</clipPath>
</defs>
</svg>
